<svg width="369" height="369" viewBox="0 0 369 369" fill="none" xmlns="http://www.w3.org/2000/svg">
<rect width="369" height="369" fill="white"/>
<path d="M118.997 246.363C118.997 249.703 119.538 252.432 120.62 254.549C121.749 256.714 123.772 258.549 126.689 260.054C132.9 262.924 140.24 265.206 148.709 266.9C157.178 268.594 166.376 269.441 176.304 269.441C181.714 269.441 187.196 269.205 192.748 268.735C198.3 268.311 203.757 267.653 209.121 266.759C214.485 265.865 219.59 264.712 224.436 263.301C229.282 261.936 233.658 260.289 237.563 258.36C242.362 256.102 245.585 253.608 247.232 250.879C248.925 248.198 249.772 244.339 249.772 239.305V132.243C249.772 119.069 243.421 112.482 230.717 112.482H224.083V110.717C224.083 106.718 222.977 103.73 220.766 101.754C218.602 99.7781 215.685 98.7901 212.015 98.7901C210.697 98.7901 209.286 98.9312 207.78 99.2135C206.322 99.4488 204.769 99.8252 203.122 100.343C192.536 103.73 182.067 106.506 171.716 108.671C161.412 110.835 150.167 111.917 137.981 111.917H133.041C128.477 111.917 124.996 113.093 122.596 115.446C120.196 117.798 118.997 121.092 118.997 125.326V246.363ZM146.733 170V145.228C146.733 144.052 147.344 143.417 148.568 143.323C156.566 142.947 164.306 142.123 171.787 140.853C179.268 139.582 186.866 137.512 194.583 134.642C195.006 134.454 195.5 134.478 196.065 134.713C196.629 134.948 196.912 135.489 196.912 136.336V161.955C196.912 162.708 196.582 163.225 195.924 163.507C191.454 165.295 186.608 166.801 181.385 168.024C176.162 169.248 170.752 170.165 165.153 170.777C159.601 171.388 154.072 171.694 148.568 171.694C147.344 171.694 146.733 171.13 146.733 170ZM170.375 252.15C175.504 251.82 180.373 251.232 184.984 250.385C189.642 249.586 193.971 248.55 197.97 247.28C201.969 246.057 205.592 244.645 208.839 243.046C212.132 241.493 215.002 239.799 217.449 237.964C219.896 236.082 221.613 234.083 222.601 231.965C223.636 229.801 224.154 226.954 224.154 223.426V129.067H229.8C232.105 129.067 233.258 130.267 233.258 132.666V236.764C233.258 238.835 232.952 240.434 232.34 241.563C231.729 242.74 230.388 243.751 228.317 244.598C224.789 246.151 220.931 247.492 216.743 248.621C212.556 249.797 208.204 250.715 203.687 251.373C199.217 252.079 194.747 252.503 190.278 252.644C186.984 252.785 183.69 252.808 180.397 252.714C177.103 252.62 173.763 252.432 170.375 252.15Z" fill="black"/>
<rect x="131.353" y="131.244" width="82.3866" height="52.0336" fill="black"/>
<path d="M148.808 176.536C148.255 177.23 147.972 177.901 147.961 178.548C147.949 179.195 148.137 179.748 148.525 180.206C148.913 180.653 149.425 180.93 150.06 181.036C150.695 181.141 151.384 180.994 152.125 180.595L164.74 173.696L178.502 181.336C178.949 181.571 179.372 181.753 179.772 181.883C180.172 182 180.566 182.059 180.955 182.059C182.143 182.059 183.213 181.471 184.166 180.295L196.834 164.556C197.351 163.921 197.61 163.28 197.61 162.633C197.622 161.986 197.446 161.427 197.081 160.957C196.716 160.486 196.216 160.192 195.581 160.075C194.958 159.945 194.264 160.087 193.499 160.498L180.866 167.415L167.104 159.792C166.234 159.31 165.416 159.069 164.652 159.069C163.475 159.069 162.405 159.657 161.441 160.833L148.808 176.536Z" fill="white"/>
</svg>
