<svg width="38" height="50" viewBox="0 0 38 50" fill="none" xmlns="http://www.w3.org/2000/svg">
<path d="M19.8084 0C18.4271 0 17.1023 0.548734 16.1256 1.52549C15.1488 2.50224 14.6001 3.827 14.6001 5.20833C14.6001 6.58967 15.1488 7.91443 16.1256 8.89118C17.1023 9.86793 18.4271 10.4167 19.8084 10.4167C21.1898 10.4167 22.5145 9.86793 23.4913 8.89118C24.468 7.91443 25.0168 6.58967 25.0168 5.20833C25.0168 3.827 24.468 2.50224 23.4913 1.52549C22.5145 0.548734 21.1898 0 19.8084 0ZM15.6377 12.5C14.8128 12.5 14.044 12.7115 13.3509 13.0534C13.2461 13.086 13.1441 13.1268 13.0457 13.1755L4.88737 17.0817C4.44436 17.2924 4.0899 17.6526 3.88639 18.099L0.20394 26.2207C0.0844269 26.4706 0.0159333 26.7418 0.00246482 27.0184C-0.0110036 27.2951 0.0308239 27.5716 0.125501 27.8319C0.220178 28.0922 0.365804 28.331 0.553862 28.5344C0.741921 28.7377 0.968638 28.9015 1.22075 29.0162C1.47287 29.1309 1.74532 29.1942 2.02218 29.2024C2.29904 29.2105 2.57475 29.1634 2.83318 29.0637C3.09161 28.9641 3.32758 28.8139 3.52728 28.622C3.72699 28.4301 3.88642 28.2002 3.99626 27.946L7.01139 21.3013L9.70915 20.4915C9.15422 23.4189 8.4633 27.045 8.45996 27.063C8.45908 27.0672 8.45677 27.0709 8.45589 27.0752V27.0833C8.38757 27.4199 8.3501 27.7684 8.3501 28.125C8.3501 29.7313 9.09443 31.1488 10.2381 32.1045L10.2544 32.1533L18.3639 38.5417L20.6833 47.2819L20.8908 48.3236C20.9849 48.7961 21.2399 49.2214 21.6123 49.5271C21.9848 49.8327 22.4516 49.9999 22.9334 50C23.486 50 24.0159 49.7805 24.4066 49.3898C24.7973 48.9991 25.0168 48.4692 25.0168 47.9167C25.0166 47.78 25.0029 47.6437 24.9761 47.5098V47.5016C24.9734 47.4935 24.9707 47.4853 24.9679 47.4772L22.8927 37.0931C22.8369 36.8111 22.7233 36.5437 22.5591 36.3078L18.661 29.1748C18.6647 29.1565 18.6615 29.1362 18.665 29.1178L20.7118 18.8802L20.7077 18.8761C20.7942 18.4996 20.8501 18.1111 20.8501 17.7083C20.8501 14.8347 18.517 12.5022 15.6377 12.5ZM24.5692 20.8333L23.7391 25H31.2668C31.8193 25 32.3492 24.7805 32.7399 24.3898C33.1306 23.9991 33.3501 23.4692 33.3501 22.9167C33.3501 22.3641 33.1306 21.8342 32.7399 21.4435C32.3492 21.0528 31.8193 20.8333 31.2668 20.8333H24.5692ZM32.3084 27.0833C30.9271 27.0833 29.6023 27.6321 28.6256 28.6088C27.6488 29.5856 27.1001 30.9103 27.1001 32.2917C27.1001 33.673 27.6488 34.9978 28.6256 35.9745C29.6023 36.9513 30.9271 37.5 32.3084 37.5C33.6898 37.5 35.0145 36.9513 35.9913 35.9745C36.968 34.9978 37.5168 33.673 37.5168 32.2917C37.5168 30.9103 36.968 29.5856 35.9913 28.6088C35.0145 27.6321 33.6898 27.0833 32.3084 27.0833ZM8.26058 34.8429L7.19043 38.3789L2.54769 46.5861L2.39307 46.8465L2.39714 46.8506C2.37255 46.8932 2.34948 46.9366 2.32796 46.9808L2.31169 47.0052C2.17296 47.2891 2.10061 47.6007 2.1001 47.9167C2.1001 48.4692 2.31959 48.9991 2.71029 49.3898C3.10099 49.7805 3.6309 50 4.18343 50C4.51204 49.9999 4.83595 49.922 5.12872 49.7728C5.4215 49.6236 5.67482 49.4073 5.868 49.1414H5.87207L5.90462 49.0926L5.90869 49.0845L12.8382 38.5661L8.26058 34.8429Z" fill="#252941"/>
</svg>
