<svg width="50" height="50" viewBox="0 0 50 50" fill="none" xmlns="http://www.w3.org/2000/svg">
<path d="M28.999 0C27.6729 0 26.4011 0.526784 25.4634 1.46447C24.5258 2.40215 23.999 3.67392 23.999 5C23.999 6.32608 24.5258 7.59785 25.4634 8.53553C26.4011 9.47322 27.6729 10 28.999 10C29.6556 10 30.3058 9.87067 30.9124 9.6194C31.519 9.36812 32.0702 8.99983 32.5345 8.53553C32.9988 8.07124 33.3671 7.52004 33.6184 6.91342C33.8697 6.30679 33.999 5.65661 33.999 5C33.999 3.67392 33.4722 2.40215 32.5345 1.46447C31.5968 0.526784 30.3251 0 28.999 0ZM11.0888 6.01562C9.48233 6.07713 7.88436 6.73728 6.60836 7.98828L1.12008 13.4961C-0.24192 15.0461 -0.480701 17.4349 1.0693 18.7969C2.0813 19.8589 3.37845 20.1914 4.60445 19.8594C5.05445 18.6634 5.73514 17.5567 6.65914 16.6367C6.71714 16.5687 6.78264 16.5015 6.84664 16.4375L15.624 7.64453C14.31 6.49153 12.6953 5.95412 11.0888 6.01562ZM20.999 10C19.7192 9.99975 18.4398 10.4878 17.4638 11.4648H17.4599L9.67477 19.2656V19.2695C9.1483 19.7381 8.72684 20.3127 8.43804 20.9556C8.14923 21.5985 7.99961 22.2952 7.99899 23C7.99976 24.0815 8.35119 25.1336 9.00055 25.9985C9.64991 26.8634 10.5622 27.4944 11.6005 27.7969V27.8008L21.3037 31.1836L26.5576 41.1875C26.6459 41.4401 26.784 41.6724 26.9638 41.8706C27.1435 42.0689 27.3611 42.229 27.6039 42.3417C27.8466 42.4543 28.1095 42.517 28.3769 42.5262C28.6443 42.5354 28.9109 42.4909 29.1608 42.3952C29.4107 42.2995 29.6389 42.1547 29.8318 41.9692C30.0247 41.7838 30.1784 41.5615 30.2839 41.3156C30.3894 41.0697 30.4444 40.8051 30.4458 40.5375C30.4472 40.27 30.3949 40.0048 30.292 39.7578L26.2138 27.7578C26.045 27.2581 25.6855 26.8454 25.2138 26.6094L18.8545 23.4297L18.3388 23.1445L23.2568 18.0625L28.0068 19.7383L28.0498 19.7617C28.3416 19.9185 28.6677 20.0004 28.999 20H37.999C38.264 20.0037 38.5271 19.9548 38.7731 19.856C39.019 19.7571 39.2428 19.6104 39.4316 19.4243C39.6203 19.2382 39.7702 19.0165 39.8725 18.772C39.9748 18.5275 40.0275 18.2651 40.0275 18C40.0275 17.7349 39.9748 17.4725 39.8725 17.228C39.7702 16.9835 39.6203 16.7618 39.4316 16.5757C39.2428 16.3896 39.019 16.2429 38.7731 16.144C38.5271 16.0452 38.264 15.9963 37.999 16H30.7373L23.7568 10.832C22.9226 10.2789 21.9623 10.0002 20.999 10ZM40.999 22C36.0521 22 31.999 26.0531 31.999 31C31.999 35.9469 36.0521 40 40.999 40C45.9459 40 49.999 35.9469 49.999 31C49.999 26.0531 45.9459 22 40.999 22ZM40.999 26C43.7841 26 45.999 28.2149 45.999 31C45.999 33.7851 43.7841 36 40.999 36C38.2139 36 35.999 33.7851 35.999 31C35.999 28.2149 38.2139 26 40.999 26ZM10.999 32C6.05211 32 1.99899 36.0531 1.99899 41C1.99899 45.9469 6.05211 50 10.999 50C15.9459 50 19.999 45.9469 19.999 41C19.999 36.0531 15.9459 32 10.999 32ZM10.999 36C13.7841 36 15.999 38.2149 15.999 41C15.999 43.7851 13.7841 46 10.999 46C8.21387 46 5.99899 43.7851 5.99899 41C5.99899 38.2149 8.21387 36 10.999 36Z" fill="#252941"/>
</svg>
