<svg width="44" height="50" viewBox="0 0 44 50" fill="none" xmlns="http://www.w3.org/2000/svg">
<path d="M21.1439 0C19.7853 0 18.4822 0.539729 17.5215 1.50045C16.5608 2.46118 16.0211 3.7642 16.0211 5.12287C16.0211 6.48154 16.5608 7.78456 17.5215 8.74528C18.4822 9.70601 19.7853 10.2457 21.1439 10.2457C21.8167 10.2457 22.4828 10.1132 23.1044 9.85578C23.7259 9.59834 24.2906 9.22099 24.7664 8.74528C25.2421 8.26958 25.6194 7.70484 25.8768 7.08331C26.1343 6.46177 26.2668 5.79561 26.2668 5.12287C26.2668 4.45012 26.1343 3.78397 25.8768 3.16243C25.6194 2.5409 25.2421 1.97616 24.7664 1.50045C24.2906 1.02475 23.7259 0.647403 23.1044 0.389955C22.4828 0.132507 21.8167 0 21.1439 0ZM40.943 0.800448C40.4107 0.816311 39.9054 1.03881 39.5342 1.4208L33.5669 7.38814L23.5373 13.4075C23.5088 13.4242 23.4808 13.4415 23.4532 13.4595L11.1583 21.6561C10.9298 21.8033 10.7329 21.9946 10.579 22.2186C10.4251 22.4427 10.3173 22.6951 10.2619 22.9613C10.2065 23.2274 10.2046 23.5019 10.2563 23.7687C10.308 24.0356 10.4123 24.2895 10.5631 24.5157C10.7139 24.7419 10.9081 24.9358 11.1346 25.0861C11.361 25.2365 11.6151 25.3403 11.8821 25.3916C12.1491 25.4428 12.4235 25.4404 12.6896 25.3845C12.9556 25.3286 13.2078 25.2203 13.4316 25.066L13.9439 24.7258L24.2177 18.6985L26.639 23.4531L20.3995 25.5863C20.0819 25.7113 19.7884 25.8822 19.5671 26.1506L15.3727 31.2095L18.7626 33.7109L21.6042 30.4931L28.8683 29.2284L26.7831 34.8995L26.7911 34.9156C26.7009 35.1512 26.639 35.3978 26.639 35.656V39.5101L30.7373 42.5278V37.7051L37.273 29.0163V29.0002C38.1006 28.0662 38.5589 26.8623 38.5617 25.6143C38.5606 24.6785 38.3031 23.7608 37.8173 22.9609V22.9569L33.2707 13.7717L36.2164 10.5299C36.2217 10.5246 36.2271 10.5193 36.2324 10.5139C36.25 10.4982 36.2673 10.4822 36.2844 10.4659L42.4319 4.31842C42.728 4.03059 42.9302 3.66002 43.0121 3.25527C43.094 2.85053 43.0517 2.43048 42.8907 2.05019C42.7298 1.6699 42.4577 1.3471 42.1102 1.12409C41.7626 0.901084 41.3558 0.788276 40.943 0.800448ZM4.69072 28.584C3.35221 28.4704 1.98617 28.983 1.04868 30.0728C-0.58244 31.9663 -0.274812 34.8443 1.72106 36.3484L21.3761 50H34.8356L6.968 29.4725C6.28563 28.9446 5.49383 28.6522 4.69072 28.584Z" fill="#252941"/>
</svg>
