<svg width="20" height="20" viewBox="0 0 20 20" fill="none" xmlns="http://www.w3.org/2000/svg">
<path d="M4.7619 0C2.13746 0 0 2.13746 0 4.7619V15.2381C0 17.8625 2.13746 20 4.7619 20H15.2381C17.8625 20 20 17.8625 20 15.2381V4.7619C20 2.13746 17.8625 0 15.2381 0H4.7619ZM4.28571 5.71429H15.7143C15.8 5.71429 15.8808 5.72396 15.957 5.74777L11.276 10.4241C10.5713 11.1289 9.42407 11.1289 8.71931 10.4241L4.04297 5.74777C4.11916 5.72396 4.2 5.71429 4.28571 5.71429ZM3.36682 6.42392L6.94754 10L3.36682 13.5761C3.34301 13.4999 3.33333 13.419 3.33333 13.3333V6.66667C3.33333 6.58095 3.34301 6.50011 3.36682 6.42392ZM16.6332 6.42392C16.657 6.50011 16.6667 6.58095 16.6667 6.66667V13.3333C16.6667 13.419 16.657 13.4999 16.6332 13.5761L13.0478 10L16.6332 6.42392ZM7.61905 10.6715L8.04315 11.1003C8.58125 11.6384 9.29059 11.9048 9.99535 11.9048C10.7049 11.9048 11.4094 11.6384 11.9475 11.1003L12.3763 10.6715L15.957 14.2522C15.8808 14.276 15.8 14.2857 15.7143 14.2857H4.28571C4.2 14.2857 4.11916 14.276 4.04297 14.2522L7.61905 10.6715Z" fill="black"/>
</svg>
