<svg width="20" height="20" viewBox="0 0 20 20" fill="none" xmlns="http://www.w3.org/2000/svg">
<g clip-path="url(#clip0_1_2017)">
<path d="M8.87747 0.26997C4.26813 0.775415 0.560617 4.51571 0.0596024 9.06472C-0.441413 13.8159 2.26407 18.0617 6.37239 19.6791C6.673 19.7802 6.97361 19.578 6.97361 19.1736V17.5562C6.97361 17.5562 6.5728 17.6573 6.07178 17.6573C4.66894 17.6573 4.06772 16.4442 3.96752 15.7366C3.86732 15.3322 3.66691 15.029 3.3663 14.7257C3.06569 14.6246 2.96549 14.6246 2.96549 14.5235C2.96549 14.3214 3.2661 14.3214 3.3663 14.3214C3.96752 14.3214 4.46853 15.029 4.66894 15.3322C5.16996 16.141 5.77117 16.3431 6.07178 16.3431C6.47259 16.3431 6.7732 16.2421 6.97361 16.141C7.07381 15.4333 7.37442 14.7257 7.97564 14.3214C5.67097 13.8159 3.96752 12.5018 3.96752 10.2778C3.96752 9.16581 4.46853 8.05383 5.16996 7.24512C5.06975 7.04294 4.96955 6.5375 4.96955 5.82987C4.96955 5.42552 4.96955 4.81898 5.27016 4.21245C5.27016 4.21245 6.673 4.21245 8.07584 5.5266C8.57686 5.32443 9.27828 5.22334 9.9797 5.22334C10.6811 5.22334 11.3825 5.32443 11.9838 5.5266C13.2864 4.21245 14.7894 4.21245 14.7894 4.21245C14.9898 4.81898 14.9899 5.42552 14.9899 5.82987C14.9899 6.63858 14.8896 7.04294 14.7894 7.24512C15.4909 8.05383 15.9919 9.06472 15.9919 10.2778C15.9919 12.5018 14.2884 13.8159 11.9838 14.3214C12.585 14.8268 12.9858 15.7366 12.9858 16.6464V19.2747C12.9858 19.578 13.2864 19.8813 13.6872 19.7802C17.3947 18.2638 20 14.6246 20 10.3789C20 4.31354 14.8896 -0.437654 8.87747 0.26997Z" fill="black"/>
</g>
<defs>
<clipPath id="clip0_1_2017">
<rect width="20" height="20" fill="white"/>
</clipPath>
</defs>
</svg>
