<svg width="20" height="20" viewBox="0 0 20 20" fill="none" xmlns="http://www.w3.org/2000/svg">
<path d="M10 2C9.89002 2.00008 9.78177 2.02737 9.6849 2.07943L0.358073 6.74219V6.74349C0.25026 6.79979 0.159904 6.88451 0.0967874 6.98848C0.0336713 7.09245 0.0002007 7.21171 0 7.33333C0.0002007 7.45496 0.0336713 7.57422 0.0967874 7.67819C0.159904 7.78216 0.25026 7.86688 0.358073 7.92318V7.92448L9.68099 12.5846C9.77879 12.6382 9.88848 12.6664 10 12.6667C10.11 12.6666 10.2182 12.6393 10.3151 12.5872L19.6354 7.92708C19.6376 7.92623 19.6398 7.92536 19.6419 7.92448V7.92318C19.7497 7.86688 19.8401 7.78216 19.9032 7.67819C19.9663 7.57422 19.9998 7.45496 20 7.33333C19.9998 7.21171 19.9663 7.09245 19.9032 6.98848C19.8401 6.88451 19.7497 6.79979 19.6419 6.74349V6.74219L10.319 2.08203C10.2212 2.02843 10.1115 2.00023 10 2ZM19.3333 9.56901L18 10.2357V16.1849C17.6029 16.4157 17.3333 16.8407 17.3333 17.3333C17.3333 18.07 18.6667 20 18.6667 20C18.6667 20 20 18.07 20 17.3333C20 16.8407 19.7304 16.4157 19.3333 16.1849V9.56901ZM4 11.2344V14C4 15.8407 6.686 17.3333 10 17.3333C13.314 17.3333 16 15.8407 16 14V11.2344L10.9102 13.7799C10.8542 13.8079 10.7982 13.8309 10.7409 13.8503C10.4996 13.9496 10.2513 14 10 14C9.74933 14 9.50172 13.9496 9.26172 13.8503C9.20372 13.8309 9.14651 13.8073 9.08984 13.7786L4 11.2344Z" fill="black"/>
</svg>
