<svg width="10" height="10" viewBox="0 0 10 10" fill="none" xmlns="http://www.w3.org/2000/svg">
<g clip-path="url(#clip0_80_1506)">
<path d="M7.07176 0C6.32162 0 5.57127 0.285688 5 0.856959L3.72534 2.13161C2.58279 3.27415 2.58279 5.13214 3.72534 6.27468C4.07126 6.62037 4.47916 6.85954 4.91725 6.99476L5.15933 6.75268C5.31708 6.59493 5.42882 6.40681 5.48944 6.20602C5.07682 6.14405 4.67974 5.95443 4.36267 5.63735C3.57235 4.84704 3.57235 3.55925 4.36267 2.76894L5.63733 1.49429C6.42765 0.703972 7.71544 0.703972 8.50576 1.49429C9.29608 2.2846 9.29608 3.57239 8.50576 4.3627L7.74255 5.12591C7.82232 5.54033 7.8269 5.96593 7.75839 6.37855C7.79512 6.34498 7.83327 6.30984 7.86843 6.27468L9.14309 5.00003C10.2856 3.85749 10.2856 1.9995 9.14309 0.856959C8.57182 0.285688 7.82191 0 7.07176 0ZM5.08319 3.00486L4.84111 3.24738C4.68336 3.40512 4.57162 3.5928 4.511 3.79359C4.92362 3.85557 5.32026 4.04563 5.63733 4.3627C6.42765 5.15301 6.42765 6.44036 5.63733 7.23067L4.36267 8.50577C3.57235 9.29608 2.28456 9.29608 1.49424 8.50577C0.703923 7.71545 0.703923 6.42767 1.49424 5.63735L2.25745 4.87415C2.17768 4.45972 2.1731 4.03412 2.24161 3.6215C2.20488 3.65508 2.16673 3.69022 2.13157 3.72537L0.85691 5.00003C-0.285637 6.14257 -0.285637 8.00055 0.85691 9.14309C1.99946 10.2856 3.85745 10.2856 5 9.14309L6.27466 7.86844C7.41721 6.7259 7.41721 4.86791 6.27466 3.72537C5.92874 3.37968 5.52105 3.14029 5.08319 3.00486Z" fill="#252941"/>
</g>
<defs>
<clipPath id="clip0_80_1506">
<rect width="10" height="10" fill="white"/>
</clipPath>
</defs>
</svg>
