<svg width="16" height="20" viewBox="0 0 16 20" fill="none" xmlns="http://www.w3.org/2000/svg">
<path d="M13.8462 0H1.53846C0.688461 0 0 0.688462 0 1.53846V18.4615C0 19.3115 0.688461 20 1.53846 20H13.8462C14.6962 20 15.3846 19.3115 15.3846 18.4615V1.53846C15.3846 0.688462 14.6962 0 13.8462 0ZM4.42308 7.86308V7.16846C4.27846 7.09154 3.86615 6.55923 3.82308 6.14385C3.71 6.13462 3.53154 6.02154 3.47846 5.57615C3.45077 5.33692 3.56308 5.20231 3.63077 5.16C3.63077 5.16 3.46154 4.77462 3.46154 4.39077C3.46154 3.25231 4.02538 2.30769 5.38462 2.30769C6.11846 2.30769 6.34615 2.82846 6.34615 2.82846C7.00231 2.82846 7.30769 3.54769 7.30769 4.39077C7.30769 4.81154 7.13846 5.16 7.13846 5.16C7.20615 5.20231 7.31846 5.33692 7.29077 5.57615C7.23846 6.02154 7.06 6.13462 6.94692 6.14385C6.90385 6.55923 6.49154 7.09154 6.34692 7.16846V7.86308C6.63462 8.79923 8.03923 8.34077 8.46231 10H2.30769C2.73077 8.34077 4.13538 8.79923 4.42308 7.86308ZM12.3077 16.9231H3.07692C2.65231 16.9231 2.30769 16.5785 2.30769 16.1538C2.30769 15.7292 2.65231 15.3846 3.07692 15.3846H12.3077C12.7323 15.3846 13.0769 15.7292 13.0769 16.1538C13.0769 16.5785 12.7323 16.9231 12.3077 16.9231ZM12.3077 13.8462H3.07692C2.65231 13.8462 2.30769 13.5015 2.30769 13.0769C2.30769 12.6523 2.65231 12.3077 3.07692 12.3077H12.3077C12.7323 12.3077 13.0769 12.6523 13.0769 13.0769C13.0769 13.5015 12.7323 13.8462 12.3077 13.8462ZM12.3077 10H10.7692C10.3446 10 10 9.65538 10 9.23077C10 8.80615 10.3446 8.46154 10.7692 8.46154H12.3077C12.7323 8.46154 13.0769 8.80615 13.0769 9.23077C13.0769 9.65538 12.7323 10 12.3077 10ZM12.3077 6.92308H10.7692C10.3446 6.92308 10 6.57846 10 6.15385C10 5.72923 10.3446 5.38462 10.7692 5.38462H12.3077C12.7323 5.38462 13.0769 5.72923 13.0769 6.15385C13.0769 6.57846 12.7323 6.92308 12.3077 6.92308Z" fill="#252941"/>
</svg>
